<mxfile host="app.diagrams.net" modified="2024-04-06T14:54:02.557Z" agent="Mozilla/5.0 (Windows NT 10.0; Win64; x64) AppleWebKit/537.36 (KHTML, like Gecko) Chrome/109.0.0.0 Safari/537.36" etag="PJ6o3Bn4Nn1Usk1JDNzb" version="24.2.2" type="device">
  <diagram name="Page-1" id="e7e014a7-5840-1c2e-5031-d8a46d1fe8dd">
    <mxGraphModel dx="1567" dy="703" grid="1" gridSize="10" guides="1" tooltips="1" connect="1" arrows="1" fold="1" page="1" pageScale="1" pageWidth="1169" pageHeight="826" background="none" math="0" shadow="0">
      <root>
        <mxCell id="0" />
        <mxCell id="1" parent="0" />
        <mxCell id="DmGnlvQNjDn2wmJuMb9q-41" value="" style="whiteSpace=wrap;html=1;aspect=fixed;" vertex="1" parent="1">
          <mxGeometry x="570" y="430" width="520" height="520" as="geometry" />
        </mxCell>
        <mxCell id="DmGnlvQNjDn2wmJuMb9q-42" value="&lt;font style=&quot;font-size: 14px;&quot;&gt;Ticket&lt;/font&gt;" style="ellipse;whiteSpace=wrap;html=1;" vertex="1" parent="1">
          <mxGeometry x="540" y="530" width="120" height="80" as="geometry" />
        </mxCell>
        <mxCell id="DmGnlvQNjDn2wmJuMb9q-43" value="&lt;font style=&quot;font-size: 14px;&quot;&gt;BillGeneration&lt;/font&gt;" style="ellipse;whiteSpace=wrap;html=1;" vertex="1" parent="1">
          <mxGeometry x="540" y="650" width="120" height="80" as="geometry" />
        </mxCell>
        <mxCell id="DmGnlvQNjDn2wmJuMb9q-44" value="&lt;font style=&quot;font-size: 14px;&quot;&gt;Payment&lt;/font&gt;" style="ellipse;whiteSpace=wrap;html=1;" vertex="1" parent="1">
          <mxGeometry x="540" y="760" width="120" height="80" as="geometry" />
        </mxCell>
        <mxCell id="DmGnlvQNjDn2wmJuMb9q-45" value="&lt;font style=&quot;font-size: 18px;&quot;&gt;Spot Assginment&lt;/font&gt;" style="ellipse;whiteSpace=wrap;html=1;" vertex="1" parent="1">
          <mxGeometry x="830" y="570" width="240" height="90" as="geometry" />
        </mxCell>
        <mxCell id="DmGnlvQNjDn2wmJuMb9q-47" value="&lt;font style=&quot;font-size: 18px;&quot;&gt;Vehical info&lt;/font&gt;" style="ellipse;whiteSpace=wrap;html=1;" vertex="1" parent="1">
          <mxGeometry x="820" y="470" width="240" height="80" as="geometry" />
        </mxCell>
        <mxCell id="DmGnlvQNjDn2wmJuMb9q-48" value="&lt;font style=&quot;font-size: 18px;&quot;&gt;Fee caluclation&lt;/font&gt;" style="ellipse;whiteSpace=wrap;html=1;" vertex="1" parent="1">
          <mxGeometry x="830" y="680" width="240" height="80" as="geometry" />
        </mxCell>
        <mxCell id="DmGnlvQNjDn2wmJuMb9q-50" value="&lt;font style=&quot;font-size: 18px;&quot;&gt;Payment mode&lt;/font&gt;" style="ellipse;whiteSpace=wrap;html=1;" vertex="1" parent="1">
          <mxGeometry x="840" y="800" width="240" height="80" as="geometry" />
        </mxCell>
        <mxCell id="DmGnlvQNjDn2wmJuMb9q-52" value="" style="endArrow=classic;html=1;rounded=0;" edge="1" parent="1" source="DmGnlvQNjDn2wmJuMb9q-42" target="DmGnlvQNjDn2wmJuMb9q-47">
          <mxGeometry width="50" height="50" relative="1" as="geometry">
            <mxPoint x="770" y="740" as="sourcePoint" />
            <mxPoint x="820" y="690" as="targetPoint" />
            <Array as="points" />
          </mxGeometry>
        </mxCell>
        <mxCell id="DmGnlvQNjDn2wmJuMb9q-53" value="" style="endArrow=classic;html=1;rounded=0;" edge="1" parent="1" source="DmGnlvQNjDn2wmJuMb9q-42" target="DmGnlvQNjDn2wmJuMb9q-45">
          <mxGeometry width="50" height="50" relative="1" as="geometry">
            <mxPoint x="770" y="740" as="sourcePoint" />
            <mxPoint x="820" y="690" as="targetPoint" />
            <Array as="points" />
          </mxGeometry>
        </mxCell>
        <mxCell id="DmGnlvQNjDn2wmJuMb9q-54" value="Includes" style="text;html=1;align=center;verticalAlign=middle;whiteSpace=wrap;rounded=0;rotation=-5;" vertex="1" parent="1">
          <mxGeometry x="720" y="510" width="60" height="30" as="geometry" />
        </mxCell>
        <mxCell id="DmGnlvQNjDn2wmJuMb9q-55" value="&#xa;&lt;span style=&quot;color: rgb(0, 0, 0); font-family: Helvetica; font-size: 12px; font-style: normal; font-variant-ligatures: normal; font-variant-caps: normal; font-weight: 400; letter-spacing: normal; orphans: 2; text-align: center; text-indent: 0px; text-transform: none; white-space: normal; widows: 2; word-spacing: 0px; -webkit-text-stroke-width: 0px; background-color: rgb(251, 251, 251); text-decoration-thickness: initial; text-decoration-style: initial; text-decoration-color: initial; display: inline !important; float: none;&quot;&gt;Includes&lt;/span&gt;&#xa;&#xa;" style="text;html=1;align=center;verticalAlign=middle;whiteSpace=wrap;rounded=0;" vertex="1" parent="1">
          <mxGeometry x="730" y="570" width="60" height="30" as="geometry" />
        </mxCell>
        <mxCell id="DmGnlvQNjDn2wmJuMb9q-56" value="" style="endArrow=classic;html=1;rounded=0;entryX=0;entryY=0.5;entryDx=0;entryDy=0;" edge="1" parent="1" source="DmGnlvQNjDn2wmJuMb9q-43" target="DmGnlvQNjDn2wmJuMb9q-48">
          <mxGeometry width="50" height="50" relative="1" as="geometry">
            <mxPoint x="770" y="740" as="sourcePoint" />
            <mxPoint x="820" y="690" as="targetPoint" />
          </mxGeometry>
        </mxCell>
        <mxCell id="DmGnlvQNjDn2wmJuMb9q-58" value="" style="endArrow=classic;html=1;rounded=0;entryX=0;entryY=0.5;entryDx=0;entryDy=0;" edge="1" parent="1">
          <mxGeometry width="50" height="50" relative="1" as="geometry">
            <mxPoint x="669" y="810" as="sourcePoint" />
            <mxPoint x="840" y="832" as="targetPoint" />
            <Array as="points">
              <mxPoint x="749" y="820" />
            </Array>
          </mxGeometry>
        </mxCell>
        <mxCell id="DmGnlvQNjDn2wmJuMb9q-59" value="Includes" style="text;html=1;align=center;verticalAlign=middle;whiteSpace=wrap;rounded=0;" vertex="1" parent="1">
          <mxGeometry x="730" y="675" width="60" height="30" as="geometry" />
        </mxCell>
        <mxCell id="DmGnlvQNjDn2wmJuMb9q-61" value="Includes" style="text;html=1;align=center;verticalAlign=middle;whiteSpace=wrap;rounded=0;" vertex="1" parent="1">
          <mxGeometry x="720" y="796" width="60" height="30" as="geometry" />
        </mxCell>
        <mxCell id="DmGnlvQNjDn2wmJuMb9q-62" value="Operator" style="shape=umlActor;verticalLabelPosition=bottom;verticalAlign=top;html=1;outlineConnect=0;" vertex="1" parent="1">
          <mxGeometry x="370" y="540" width="30" height="60" as="geometry" />
        </mxCell>
        <mxCell id="DmGnlvQNjDn2wmJuMb9q-63" value="Costumer" style="shape=umlActor;verticalLabelPosition=bottom;verticalAlign=top;html=1;outlineConnect=0;" vertex="1" parent="1">
          <mxGeometry x="360" y="730" width="30" height="60" as="geometry" />
        </mxCell>
        <mxCell id="DmGnlvQNjDn2wmJuMb9q-69" value="" style="endArrow=classic;html=1;rounded=0;" edge="1" parent="1" source="DmGnlvQNjDn2wmJuMb9q-62">
          <mxGeometry width="50" height="50" relative="1" as="geometry">
            <mxPoint x="430" y="650" as="sourcePoint" />
            <mxPoint x="540" y="680" as="targetPoint" />
          </mxGeometry>
        </mxCell>
        <mxCell id="DmGnlvQNjDn2wmJuMb9q-72" value="" style="endArrow=classic;html=1;rounded=0;entryX=-0.003;entryY=0.325;entryDx=0;entryDy=0;entryPerimeter=0;" edge="1" parent="1" target="DmGnlvQNjDn2wmJuMb9q-44">
          <mxGeometry width="50" height="50" relative="1" as="geometry">
            <mxPoint x="390" y="760" as="sourcePoint" />
            <mxPoint x="440" y="710" as="targetPoint" />
          </mxGeometry>
        </mxCell>
        <mxCell id="DmGnlvQNjDn2wmJuMb9q-78" value="" style="endArrow=classic;html=1;rounded=0;" edge="1" parent="1">
          <mxGeometry width="50" height="50" relative="1" as="geometry">
            <mxPoint x="410" y="550" as="sourcePoint" />
            <mxPoint x="530" y="570" as="targetPoint" />
          </mxGeometry>
        </mxCell>
        <mxCell id="DmGnlvQNjDn2wmJuMb9q-79" value="Excludes" style="text;html=1;align=center;verticalAlign=middle;resizable=0;points=[];autosize=1;strokeColor=none;fillColor=none;" vertex="1" parent="1">
          <mxGeometry x="436" y="528" width="70" height="30" as="geometry" />
        </mxCell>
        <mxCell id="DmGnlvQNjDn2wmJuMb9q-80" value="Excludes" style="text;html=1;align=center;verticalAlign=middle;resizable=0;points=[];autosize=1;strokeColor=none;fillColor=none;" vertex="1" parent="1">
          <mxGeometry x="446" y="600" width="70" height="30" as="geometry" />
        </mxCell>
        <mxCell id="DmGnlvQNjDn2wmJuMb9q-81" value="Excludes" style="text;html=1;align=center;verticalAlign=middle;resizable=0;points=[];autosize=1;strokeColor=none;fillColor=none;" vertex="1" parent="1">
          <mxGeometry x="416" y="728" width="70" height="30" as="geometry" />
        </mxCell>
        <mxCell id="DmGnlvQNjDn2wmJuMb9q-82" value="&lt;font style=&quot;font-size: 24px;&quot;&gt;UML Diagram : Parking lot managment system&lt;/font&gt;" style="text;html=1;align=center;verticalAlign=middle;resizable=0;points=[];autosize=1;strokeColor=none;fillColor=none;" vertex="1" parent="1">
          <mxGeometry x="580" y="970" width="510" height="40" as="geometry" />
        </mxCell>
      </root>
    </mxGraphModel>
  </diagram>
</mxfile>
